<?xml version="1.0" standalone="no"?>
<!DOCTYPE svg PUBLIC "-//W3C//DTD SVG 20010904//EN"
 "http://www.w3.org/TR/2001/REC-SVG-20010904/DTD/svg10.dtd">
<svg version="1.0" xmlns="http://www.w3.org/2000/svg"
 width="6000.000000pt" height="6000.000000pt" viewBox="0 0 6000.000000 6000.000000"
 preserveAspectRatio="xMidYMid meet">
<g transform="translate(0.000000,6000.000000) scale(0.100000,-0.100000)"
fill="#000000" stroke="none">
<path d="M25230 59169 c120 -119 239 -249 269 -292 8 -12 22 -28 30 -37 21
-22 31 -35 122 -155 112 -148 260 -373 326 -495 14 -25 28 -49 33 -55 36 -48
241 -462 292 -589 10 -27 27 -68 37 -90 11 -23 31 -72 46 -111 14 -38 30 -79
35 -90 37 -85 175 -506 216 -660 2 -5 13 -46 25 -90 11 -44 23 -88 25 -97 10
-43 13 -57 33 -134 12 -45 24 -92 26 -105 3 -13 9 -46 15 -74 6 -27 12 -59 14
-70 2 -11 11 -51 20 -90 8 -38 20 -97 26 -130 5 -33 12 -71 15 -85 3 -13 7
-40 10 -60 3 -20 8 -47 11 -60 3 -14 7 -41 9 -60 3 -19 7 -50 10 -68 3 -17 8
-49 11 -70 2 -20 7 -48 10 -62 2 -14 7 -43 9 -65 3 -22 7 -60 10 -85 3 -25 7
-65 10 -90 3 -25 7 -61 10 -80 11 -85 23 -217 30 -310 1 -25 6 -88 10 -140 34
-439 38 -1200 10 -1600 -18 -253 -25 -343 -29 -390 -12 -130 -18 -188 -21
-215 -2 -16 -6 -57 -10 -90 -3 -33 -8 -73 -10 -90 -2 -16 -9 -70 -15 -120 -6
-49 -13 -106 -16 -125 -3 -19 -7 -48 -9 -65 -2 -16 -9 -64 -16 -105 -6 -41
-12 -84 -14 -95 -8 -58 -17 -108 -30 -180 -8 -44 -17 -100 -20 -125 -4 -24 -8
-47 -10 -51 -4 -5 -13 -48 -20 -94 -11 -68 -18 -105 -27 -140 -6 -22 -12 -49
-13 -60 -2 -11 -10 -54 -20 -95 -9 -41 -18 -82 -20 -90 -13 -63 -78 -326 -80
-331 -2 -3 -6 -17 -9 -31 -6 -33 -55 -218 -63 -238 -3 -8 -8 -24 -10 -34 -5
-26 -49 -175 -78 -261 -13 -38 -31 -97 -41 -130 -21 -73 -19 -67 -27 -85 -3
-8 -27 -76 -53 -150 -26 -74 -53 -153 -61 -175 -26 -73 -163 -414 -187 -467
-13 -29 -45 -100 -71 -158 -61 -136 -229 -473 -287 -575 -25 -44 -55 -96 -65
-115 -107 -187 -310 -499 -401 -615 -4 -5 -45 -59 -92 -120 -46 -60 -89 -115
-95 -121 -5 -6 -32 -37 -60 -70 -142 -167 -315 -341 -495 -498 -38 -33 -243
-190 -292 -224 -234 -160 -415 -289 -438 -312 -3 -3 -41 -34 -85 -70 -190
-153 -488 -439 -621 -595 -32 -38 -64 -74 -70 -80 -26 -23 -252 -320 -290
-380 -10 -16 -21 -32 -24 -35 -14 -13 -50 -70 -50 -79 0 -5 -4 -11 -9 -13 -17
-6 -196 -316 -286 -493 -144 -286 -254 -560 -355 -880 -36 -117 -122 -451
-135 -525 -3 -19 -10 -51 -15 -70 -5 -19 -11 -48 -13 -65 -3 -16 -10 -57 -15
-90 -6 -33 -14 -80 -17 -105 -3 -25 -8 -52 -10 -60 -4 -15 -10 -58 -20 -135
-2 -22 -6 -56 -9 -76 -7 -51 -17 -157 -21 -209 -2 -25 -6 -83 -10 -130 -3 -47
-8 -119 -10 -160 -5 -98 -6 -601 0 -665 2 -27 6 -93 9 -145 11 -172 25 -307
41 -389 2 -13 1 -21 -2 -17 -4 4 -8 12 -9 19 -5 30 -37 144 -63 224 -120 367
-335 765 -610 1128 -79 105 -194 249 -221 276 -8 9 -35 40 -60 69 -153 180
-463 488 -690 685 -30 27 -57 51 -60 55 -9 11 -350 289 -450 365 -36 27 -72
55 -80 62 -41 34 -334 243 -477 341 -270 184 -809 522 -834 522 -5 0 -9 5 -9
10 0 6 -5 10 -11 10 -5 0 -52 25 -104 55 -193 114 -490 272 -771 411 -160 79
-294 144 -298 144 -4 0 36 -34 89 -76 132 -102 158 -126 326 -295 121 -122
190 -201 362 -419 49 -62 208 -309 276 -430 97 -172 224 -445 301 -645 23 -60
48 -126 55 -145 8 -19 21 -60 30 -90 9 -30 19 -62 21 -70 3 -8 5 -15 4 -15 -1
0 5 -18 14 -40 18 -49 85 -283 101 -355 2 -8 13 -58 25 -110 19 -81 39 -178
54 -255 22 -114 36 -199 42 -240 8 -67 12 -90 14 -90 1 0 3 -16 5 -35 2 -19 8
-75 15 -125 6 -49 13 -112 16 -140 3 -27 7 -66 9 -85 5 -36 14 -147 20 -235
24 -349 24 -997 1 -1325 -5 -63 -17 -214 -22 -260 -2 -25 -6 -74 -9 -110 -3
-36 -7 -83 -10 -105 -3 -22 -7 -62 -10 -90 -3 -27 -8 -61 -10 -75 -2 -14 -7
-53 -10 -88 -4 -35 -8 -73 -10 -84 -3 -12 -9 -56 -15 -98 -6 -42 -12 -87 -15
-99 -2 -13 -7 -44 -10 -70 -3 -25 -9 -68 -15 -96 -5 -27 -12 -68 -15 -89 -3
-21 -7 -48 -10 -60 -3 -12 -7 -32 -9 -46 -3 -21 -46 -244 -61 -318 -2 -13 -6
-31 -9 -40 -3 -9 -7 -33 -10 -52 -3 -19 -10 -50 -15 -68 -5 -18 -10 -35 -10
-37 0 -3 -2 -18 -5 -33 -4 -15 -8 -36 -10 -47 -3 -11 -17 -69 -31 -130 -15
-60 -28 -117 -30 -125 -2 -8 -8 -35 -15 -60 -7 -25 -14 -56 -17 -69 -2 -14 -6
-28 -9 -33 -3 -4 -7 -17 -9 -28 -6 -31 -53 -202 -92 -335 -19 -66 -36 -124
-37 -130 -2 -5 -11 -37 -21 -70 -10 -33 -20 -64 -21 -70 -3 -17 -161 -487
-177 -530 -9 -22 -41 -109 -72 -193 -53 -145 -210 -542 -240 -607 -7 -16 -40
-91 -73 -165 -85 -192 -94 -212 -205 -440 -55 -113 -101 -207 -102 -210 -6
-24 -235 -447 -338 -625 -48 -84 -221 -369 -259 -428 -15 -23 -31 -49 -35 -57
-4 -8 -11 -19 -16 -25 -4 -5 -39 -57 -77 -114 -84 -128 -72 -111 -176 -261
-73 -104 -141 -197 -290 -398 -10 -13 -25 -31 -33 -41 -9 -10 -27 -33 -41 -51
-14 -19 -68 -86 -120 -149 -102 -124 -246 -302 -295 -365 -16 -21 -35 -44 -40
-50 -16 -17 -234 -301 -301 -391 -32 -44 -62 -81 -66 -83 -5 -2 -8 -10 -8 -17
0 -7 -4 -15 -8 -17 -4 -1 -19 -19 -33 -38 -14 -19 -50 -69 -81 -110 -95 -129
-269 -378 -388 -555 -63 -93 -117 -172 -121 -175 -3 -3 -32 -48 -65 -100 -32
-52 -63 -99 -67 -105 -4 -5 -38 -57 -74 -115 -69 -109 -101 -161 -139 -220
-12 -19 -35 -55 -50 -80 -16 -25 -31 -49 -34 -55 -3 -5 -51 -86 -106 -180
-100 -168 -193 -327 -242 -415 -14 -25 -34 -61 -45 -80 -44 -78 -143 -258
-227 -415 -63 -117 -327 -642 -387 -770 -64 -135 -133 -283 -163 -350 -12 -27
-35 -77 -50 -110 -24 -52 -72 -165 -220 -515 -17 -41 -42 -103 -55 -138 -14
-34 -31 -77 -39 -95 -8 -17 -19 -45 -24 -62 -6 -16 -36 -95 -67 -175 -31 -80
-58 -152 -60 -160 -2 -8 -9 -28 -16 -45 -6 -16 -13 -34 -15 -40 -1 -5 -13 -39
-27 -75 -40 -105 -202 -593 -222 -670 -2 -8 -11 -37 -19 -65 -42 -143 -70
-241 -96 -344 -17 -63 -32 -117 -35 -119 -7 -7 -34 23 -122 131 -173 215 -340
505 -438 762 -14 39 -31 81 -37 95 -6 14 -12 30 -14 35 -1 6 -12 37 -24 70
-11 33 -27 80 -35 105 -25 84 -66 225 -70 245 -3 11 -7 30 -10 43 -3 12 -7 30
-9 40 -2 9 -9 35 -15 57 -6 22 -13 57 -17 79 -9 59 -12 75 -18 84 -3 5 -7 26
-10 48 -3 21 -8 50 -10 64 -3 13 -8 42 -11 65 -3 22 -8 47 -10 55 -2 8 -7 36
-10 62 -3 26 -7 62 -9 80 -3 18 -8 53 -11 78 -3 25 -7 56 -9 70 -6 33 -24 228
-31 345 -19 276 -25 786 -12 1030 15 279 17 307 33 480 3 33 7 83 9 110 3 28
6 64 9 80 2 17 7 59 11 95 3 36 10 82 15 102 9 45 5 47 -27 11 -281 -321 -506
-754 -674 -1298 -22 -71 -42 -138 -45 -147 -6 -24 -9 -39 -37 -148 -27 -103
-65 -277 -73 -325 -2 -16 -6 -41 -9 -55 -9 -41 -46 -281 -51 -330 -2 -25 -6
-54 -8 -65 -2 -11 -7 -56 -11 -100 -4 -44 -9 -91 -11 -105 -19 -159 -26 -782
-11 -1010 12 -184 26 -340 43 -455 14 -99 33 -224 40 -258 2 -12 6 -37 9 -57
3 -20 8 -47 11 -60 3 -14 7 -36 10 -50 2 -14 7 -36 10 -50 3 -14 8 -36 10 -50
3 -14 11 -52 20 -85 8 -33 16 -69 18 -80 2 -11 10 -40 17 -65 7 -25 14 -52 15
-60 10 -51 115 -393 141 -460 3 -8 7 -19 8 -25 4 -16 111 -287 135 -340 12
-28 28 -66 37 -85 68 -153 209 -424 294 -565 43 -71 107 -190 166 -308 60
-120 143 -296 143 -304 0 -2 11 -28 24 -56 55 -121 100 -234 186 -467 23 -63
46 -124 51 -135 25 -59 204 -608 214 -658 2 -9 7 -22 10 -27 3 -5 8 -20 10
-32 3 -12 11 -44 20 -72 33 -109 43 -143 60 -206 10 -36 23 -83 30 -105 7 -22
36 -128 63 -235 28 -107 65 -249 82 -315 17 -66 33 -130 36 -143 4 -22 79
-337 89 -377 3 -11 14 -60 25 -110 11 -49 29 -130 40 -180 11 -49 22 -99 24
-110 3 -11 16 -74 31 -140 14 -66 28 -131 31 -145 8 -46 17 -95 20 -105 3 -15
65 -316 70 -345 3 -14 14 -72 25 -130 12 -58 22 -114 24 -125 4 -23 10 -58 25
-135 6 -30 18 -93 26 -140 19 -110 23 -131 28 -156 2 -12 7 -37 10 -55 3 -19
8 -45 11 -59 3 -14 8 -41 11 -60 16 -104 35 -220 44 -260 5 -25 12 -66 15 -92
3 -26 8 -53 10 -60 2 -7 7 -31 9 -53 3 -22 7 -51 10 -64 3 -12 8 -42 10 -65 3
-22 10 -63 15 -91 5 -27 12 -70 16 -95 3 -25 8 -56 10 -70 2 -14 9 -54 14 -90
6 -36 13 -82 17 -104 3 -21 7 -50 9 -65 2 -14 4 -26 5 -26 1 0 3 -18 6 -40 3
-22 7 -53 9 -70 2 -16 6 -41 8 -55 3 -14 8 -43 11 -65 3 -22 10 -74 16 -115 6
-41 13 -93 16 -115 3 -22 9 -65 15 -95 5 -30 11 -74 14 -97 3 -24 8 -62 10
-85 5 -36 20 -154 40 -303 3 -16 7 -48 9 -70 3 -22 10 -80 17 -130 6 -49 12
-101 14 -115 1 -14 6 -50 9 -80 8 -66 15 -121 21 -175 l5 -40 -16 45 c-8 25
-43 128 -76 230 -34 102 -88 250 -120 330 -33 80 -61 150 -62 155 -15 51 -232
492 -318 645 -35 63 -67 122 -71 130 -4 8 -18 33 -32 55 -14 22 -28 47 -32 55
-4 8 -10 17 -13 20 -4 3 -17 23 -29 45 -30 56 -184 298 -245 386 -6 9 -35 52
-65 95 -52 76 -72 104 -231 319 -147 198 -510 641 -625 762 -16 18 -41 45 -54
60 -119 140 -557 592 -760 783 -21 19 -78 73 -127 120 -49 47 -127 119 -173
160 -46 41 -94 84 -105 95 -12 11 -55 49 -95 85 -41 36 -79 70 -85 75 -52 50
-538 452 -631 522 -33 25 -62 48 -65 52 -6 7 -110 87 -280 214 -63 48 -119 90
-125 95 -68 55 -628 445 -685 477 -8 4 21 -28 65 -71 183 -181 415 -465 605
-744 25 -36 47 -67 50 -70 21 -21 410 -632 410 -645 0 -1 18 -33 40 -69 22
-36 40 -68 40 -72 0 -3 14 -25 30 -49 17 -24 30 -46 30 -50 0 -3 20 -40 44
-83 172 -305 392 -739 601 -1187 26 -55 54 -116 62 -135 24 -54 55 -122 74
-160 16 -34 265 -616 296 -695 9 -22 22 -53 29 -70 7 -16 22 -55 34 -85 12
-30 27 -66 33 -80 6 -14 11 -27 11 -30 1 -3 36 -93 78 -200 107 -275 148 -381
218 -575 34 -93 65 -179 70 -190 5 -11 25 -67 45 -125 20 -58 47 -134 60 -170
35 -94 215 -625 220 -645 1 -5 5 -17 8 -25 3 -8 37 -112 75 -230 59 -182 80
-250 129 -410 2 -8 4 -17 5 -20 0 -3 6 -21 14 -40 10 -27 34 -105 49 -160 1
-3 4 -12 8 -20 3 -8 40 -132 82 -275 42 -143 81 -276 88 -295 6 -19 12 -39 13
-45 1 -5 16 -59 34 -120 17 -60 36 -123 40 -140 4 -16 27 -95 49 -175 23 -80
43 -152 45 -160 2 -8 10 -35 17 -60 7 -25 13 -49 15 -55 1 -5 12 -46 24 -90
12 -44 28 -104 36 -132 8 -29 21 -79 30 -110 8 -32 17 -66 19 -77 3 -10 11
-42 19 -70 13 -43 141 -542 151 -586 2 -8 25 -98 50 -200 26 -102 48 -189 49
-195 2 -5 6 -21 9 -35 4 -14 27 -110 52 -215 85 -357 185 -712 289 -1025 65
-198 155 -449 182 -507 8 -17 14 -34 14 -38 0 -8 102 -259 130 -320 10 -22 42
-94 70 -160 61 -140 271 -570 360 -735 78 -144 229 -405 309 -533 34 -54 61
-100 61 -103 0 -3 4 -10 10 -17 5 -7 60 -88 122 -182 61 -93 115 -172 120
-173 4 -2 8 -8 8 -12 0 -14 307 -436 381 -525 9 -11 54 -67 100 -125 46 -58
88 -110 94 -116 5 -6 25 -29 43 -52 19 -23 41 -50 50 -60 68 -77 145 -165 186
-211 248 -281 654 -687 950 -951 21 -19 44 -39 50 -45 79 -70 183 -159 281
-241 66 -54 122 -101 125 -104 32 -33 588 -455 731 -555 227 -159 517 -352
684 -455 68 -43 423 -256 440 -266 11 -6 52 -29 90 -51 111 -65 292 -164 515
-283 128 -68 694 -350 703 -350 3 0 56 -24 118 -54 63 -29 152 -70 199 -90 47
-21 108 -48 135 -61 28 -12 106 -46 175 -75 69 -29 139 -58 155 -66 98 -44
573 -228 885 -342 229 -84 1017 -345 1078 -357 12 -2 27 -7 32 -10 5 -3 18 -8
27 -10 10 -2 101 -29 203 -59 102 -30 219 -64 260 -75 41 -11 143 -38 225 -61
83 -22 157 -42 165 -44 8 -2 132 -33 275 -69 213 -54 446 -109 551 -132 11 -2
51 -11 89 -19 39 -9 115 -25 170 -37 55 -11 109 -22 120 -25 11 -2 29 -6 40
-8 11 -2 76 -15 145 -30 69 -14 139 -27 155 -30 17 -2 37 -6 45 -9 8 -3 33 -8
55 -12 43 -6 115 -20 155 -29 14 -3 45 -8 69 -11 24 -3 46 -7 50 -9 3 -2 31
-7 61 -11 30 -4 57 -8 60 -10 5 -3 68 -14 116 -20 11 -2 45 -8 75 -14 30 -5
72 -13 94 -16 49 -7 65 -9 185 -29 52 -9 115 -18 140 -21 25 -3 54 -7 65 -9
24 -4 99 -16 135 -21 14 -2 43 -6 65 -10 22 -3 54 -7 70 -9 17 -2 48 -7 70
-10 148 -21 270 -36 330 -41 38 -4 72 -8 75 -10 4 -2 38 -7 76 -10 38 -4 83
-9 99 -12 17 -3 48 -7 70 -9 22 -2 60 -5 85 -8 41 -5 72 -8 210 -22 25 -2 65
-7 90 -9 79 -9 234 -23 330 -30 19 -2 62 -5 95 -9 59 -5 156 -13 285 -21 99
-7 207 -14 285 -20 39 -3 115 -8 170 -10 55 -3 156 -7 225 -11 69 -3 168 -7
220 -9 52 -2 196 -7 320 -11 280 -10 978 -10 1375 -1 492 12 880 24 1030 32
55 3 147 7 205 10 218 9 589 31 850 50 41 3 105 7 142 10 68 4 134 9 263 21
39 3 90 7 115 9 95 7 265 22 345 31 28 3 72 7 100 9 27 2 77 7 110 11 33 3 78
8 100 10 22 2 58 5 80 8 22 2 65 7 95 11 30 3 71 8 90 10 19 2 60 7 90 10 30
3 66 8 80 10 14 2 48 7 75 9 28 3 73 8 100 11 28 3 61 7 75 10 14 2 50 7 80
10 30 3 64 7 76 9 12 2 45 7 75 11 30 3 71 8 91 11 21 3 50 7 65 9 15 2 42 6
58 9 17 2 54 8 84 11 30 4 61 8 70 10 9 1 39 6 66 9 54 7 96 14 135 21 14 2
45 7 70 10 25 4 59 9 75 11 34 6 71 12 115 19 16 2 73 11 127 20 139 23 152
25 213 36 30 6 71 12 90 15 19 2 42 7 50 9 8 2 31 7 50 10 19 3 87 15 150 26
63 12 126 23 140 25 14 3 103 21 198 40 95 19 183 36 195 38 12 3 22 5 22 6 0
1 9 3 20 4 11 2 34 6 50 10 17 3 41 9 55 11 35 7 58 12 115 25 28 6 59 13 70
15 11 1 64 13 119 25 54 12 106 23 115 25 96 21 712 174 851 211 74 19 142 37
150 39 36 9 417 117 540 153 359 107 825 259 1114 364 78 28 182 65 231 83
140 50 208 76 230 86 11 5 61 24 110 43 213 80 875 354 934 386 9 5 72 35 141
66 173 78 653 316 840 417 210 113 310 168 470 260 332 190 750 454 1083 685
34 23 73 50 87 60 81 56 433 313 440 322 3 3 43 34 90 70 47 35 87 66 90 69 3
4 59 49 125 102 66 53 130 105 142 115 12 11 32 28 45 38 90 74 330 284 418
366 9 8 70 65 135 125 288 268 704 702 933 975 11 14 33 39 47 55 14 17 52 62
83 100 31 39 60 72 63 75 3 3 58 73 122 155 64 83 121 155 126 161 19 22 208
281 256 349 209 299 467 706 612 965 84 150 186 341 233 435 19 39 38 71 43
73 4 2 7 8 7 13 0 6 29 69 64 142 122 251 233 502 321 727 31 80 61 154 66
165 27 58 210 591 253 735 15 52 35 115 43 140 8 25 17 53 19 63 8 33 13 52
34 127 40 139 126 488 144 582 2 13 11 52 19 88 8 36 18 83 21 105 4 22 11 56
16 75 5 19 11 53 15 75 3 23 7 52 10 65 3 14 10 50 16 80 11 57 16 88 24 154
3 21 7 41 9 45 2 3 7 31 10 61 8 71 13 108 20 145 2 17 8 55 11 85 3 30 8 62
10 70 2 8 6 47 10 85 3 39 8 86 10 105 4 33 9 77 20 188 5 51 15 175 20 262
16 248 19 378 19 750 -1 396 -3 483 -19 709 -4 47 -8 111 -10 141 -6 78 -15
169 -30 295 -2 17 -6 59 -10 95 -4 36 -9 76 -11 90 -3 14 -6 39 -8 55 -4 34
-17 121 -22 150 -2 10 -6 37 -9 60 -26 187 -97 532 -161 780 -30 116 -56 217
-58 226 -3 9 -10 34 -16 55 -47 158 -106 377 -116 434 -3 14 -9 39 -14 55 -8
27 -42 183 -53 245 -22 120 -47 262 -51 295 -21 157 -38 296 -41 330 -5 50
-16 201 -21 280 -5 82 -5 425 0 505 14 214 26 337 42 425 2 11 6 41 9 66 6 48
8 63 25 144 6 28 12 61 15 75 3 14 7 36 10 50 3 14 7 34 9 45 22 104 139 496
156 520 4 6 13 28 20 50 7 22 20 58 30 80 10 22 31 72 48 110 77 177 181 370
293 546 70 109 171 253 181 257 4 2 8 8 8 13 0 10 -6 2 134 171 514 622 1224
1136 2069 1499 174 75 459 178 520 189 6 1 1 5 -13 10 -14 4 -69 24 -122 43
-54 20 -98 34 -98 32 0 -2 -16 3 -35 11 -29 12 -125 37 -230 60 -70 16 -229
44 -280 49 -32 4 -62 8 -65 10 -8 5 -243 16 -340 17 -89 0 -279 -10 -341 -18
-20 -2 -55 -7 -79 -9 -59 -6 -116 -15 -175 -27 -27 -5 -63 -12 -80 -14 -54 -9
-298 -72 -385 -100 -322 -101 -736 -292 -1014 -466 -242 -152 -529 -357 -670
-479 -147 -127 -218 -190 -265 -236 -29 -29 -55 -53 -58 -53 -6 0 29 47 63 85
39 44 190 244 270 360 114 163 265 409 338 550 12 22 23 42 26 45 14 14 167
343 222 480 19 47 39 94 43 105 5 11 9 22 10 25 1 3 5 14 9 25 4 11 12 31 16
45 4 14 12 34 16 45 4 11 8 22 8 25 1 3 4 10 7 15 4 6 10 26 14 45 4 19 10 40
13 45 4 6 7 15 8 20 1 6 16 57 33 114 17 57 33 114 36 125 10 50 15 69 20 86
3 10 7 27 9 37 2 10 9 36 14 58 6 22 13 54 15 70 3 17 10 50 15 75 10 43 13
58 27 155 4 22 8 51 11 65 3 14 7 45 10 70 2 25 7 56 9 70 2 14 7 57 10 95 3
39 8 86 10 105 27 215 22 763 -10 1050 -2 19 -7 64 -10 100 -4 36 -9 76 -11
90 -2 14 -7 48 -10 75 -3 28 -8 61 -10 75 -13 82 -34 208 -38 226 -2 12 -7 37
-10 55 -3 19 -13 68 -22 109 -9 41 -18 84 -20 95 -2 11 -8 40 -15 65 -6 25
-13 56 -15 70 -3 14 -14 61 -25 105 -12 44 -22 87 -24 95 -14 60 -82 287 -132
445 -19 61 -36 115 -37 120 -1 6 -4 15 -7 20 -4 6 -16 42 -29 80 -21 68 -159
440 -185 500 -7 17 -34 82 -60 145 -26 63 -53 129 -60 145 -8 17 -41 91 -73
165 -86 194 -245 532 -287 610 -11 19 -20 37 -20 40 -1 7 -99 200 -150 295
-23 44 -64 121 -90 170 -62 117 -133 249 -162 300 -12 22 -29 54 -37 70 -15
30 -42 78 -130 233 -25 45 -58 104 -73 130 -54 97 -65 116 -140 245 -42 73
-90 157 -106 187 -17 30 -50 88 -74 128 -24 41 -43 75 -43 77 0 2 -20 38 -45
79 -25 42 -45 81 -45 86 0 6 -4 10 -10 10 -5 0 -10 4 -10 9 0 5 -16 38 -36 73
-20 34 -50 88 -66 118 -17 30 -50 89 -73 130 -111 199 -259 489 -319 625 -26
61 -54 124 -61 140 -27 61 -93 253 -101 294 -3 14 -8 29 -12 35 -3 6 -7 16 -8
21 -1 6 -11 42 -22 80 -11 39 -23 88 -28 110 -4 22 -8 45 -10 50 -8 28 -46
225 -49 255 -3 19 -6 44 -9 55 -8 41 -21 180 -31 350 -10 148 -10 292 -1 455
7 126 8 139 22 265 4 39 8 79 9 90 1 11 5 40 9 65 4 25 10 59 12 75 5 31 12
72 19 115 3 14 9 50 15 80 7 30 14 66 16 80 22 119 119 470 174 625 17 50 33
95 34 100 5 26 107 282 151 380 12 27 40 94 47 113 13 34 194 382 226 436 23
37 42 72 42 77 0 5 4 9 9 9 5 0 11 9 14 20 6 24 7 23 -29 6 -16 -7 -63 -29
-104 -47 -239 -106 -603 -316 -752 -433 -14 -12 -41 -32 -59 -46 -287 -218
-558 -522 -719 -805 -127 -222 -243 -538 -276 -750 -4 -27 -9 -57 -10 -65 -40
-193 -36 -621 6 -835 15 -76 20 -97 26 -130 9 -44 12 -60 14 -60 1 0 3 -11 6
-24 2 -14 11 -44 19 -68 8 -24 15 -50 15 -57 0 -19 -312 156 -555 311 -38 24
-101 64 -140 89 -82 51 -58 36 -265 175 -156 106 -432 301 -456 324 -6 5 -22
17 -34 25 -22 15 -47 34 -236 180 -90 70 -393 317 -404 329 -3 3 -39 35 -80
71 -184 160 -289 259 -540 510 -234 233 -332 338 -490 524 -14 16 -39 46 -56
65 -24 29 -137 169 -217 271 -91 116 -308 430 -384 555 -263 434 -428 781
-558 1169 -38 113 -82 263 -100 336 -40 168 -70 316 -80 388 -1 15 -6 43 -9
62 -4 19 -8 55 -11 80 -2 25 -7 59 -9 75 -27 175 -28 651 -2 901 5 49 18 147
21 165 2 9 6 34 9 55 6 40 32 183 40 219 11 48 37 162 41 178 3 9 7 25 9 35 2
9 11 42 20 73 9 31 19 65 21 75 2 11 12 46 21 79 9 33 17 67 19 75 2 8 8 35
14 60 7 25 14 56 17 70 3 13 12 56 20 95 16 71 19 90 28 135 5 28 24 134 30
165 7 38 21 131 31 205 3 25 8 56 10 70 3 14 7 48 9 75 3 28 7 70 10 95 5 42
13 123 21 215 26 309 26 1059 0 1310 -2 22 -7 76 -10 120 -4 44 -9 98 -10 120
-4 44 -17 171 -20 195 -1 8 -5 47 -10 85 -4 39 -9 79 -11 90 -5 26 -13 80 -19
135 -3 25 -10 74 -16 110 -6 36 -12 76 -14 90 -15 96 -58 334 -80 440 -7 36
-14 72 -19 100 -3 14 -8 36 -11 50 -3 14 -8 36 -11 50 -7 41 -46 212 -57 255
-12 46 -10 39 -22 90 -11 51 -9 46 -34 141 -12 45 -23 91 -26 103 -2 11 -6 25
-9 29 -3 5 -7 20 -9 33 -3 14 -14 58 -26 99 -12 41 -26 91 -31 110 -60 222
-247 804 -332 1035 -91 248 -160 431 -170 455 -7 14 -12 27 -13 30 -9 27 -148
369 -185 455 -5 11 -39 90 -76 175 -71 164 -88 204 -152 340 -21 47 -59 128
-83 180 -91 199 -393 794 -500 985 -16 28 -36 66 -46 85 -9 19 -25 46 -34 60
-9 14 -30 50 -46 80 -85 156 -233 398 -233 383 0 -7 7 -38 15 -70 9 -32 18
-74 21 -93 3 -19 7 -46 10 -60 25 -138 25 -506 -1 -638 -2 -11 -6 -35 -9 -53
-29 -182 -106 -433 -186 -604 -38 -83 -113 -232 -147 -295 -40 -72 -174 -281
-207 -321 -11 -14 -28 -36 -36 -49 -20 -31 -131 -170 -199 -250 -81 -96 -394
-407 -397 -395 -2 6 -5 64 -8 130 -5 144 -15 246 -31 315 -3 14 -8 39 -11 55
-3 17 -12 57 -21 90 -8 33 -16 65 -17 70 -19 85 -91 290 -154 440 -49 118
-190 409 -239 495 -11 19 -44 78 -74 130 -29 52 -56 97 -59 100 -7 7 -26 38
-51 84 -11 21 -25 44 -30 50 -5 6 -50 73 -99 148 -183 282 -484 688 -721 974
-45 55 -98 119 -118 143 -20 24 -50 60 -67 80 -17 20 -76 88 -130 151 -54 63
-113 131 -131 150 -17 19 -40 44 -50 56 -29 34 -145 163 -178 198 -16 18 -77
84 -135 146 -205 222 -319 339 -695 715 -320 320 -623 616 -775 755 -19 18
-82 77 -140 130 -58 54 -118 111 -135 126 -16 15 -75 68 -130 119 -55 50 -120
109 -145 131 -25 21 -49 44 -55 50 -9 11 -125 114 -294 264 -41 36 -79 70 -85
75 -6 6 -85 76 -176 155 -91 80 -167 147 -170 150 -3 3 -129 111 -280 240
-151 129 -286 245 -300 257 -27 23 -327 273 -405 338 -27 22 -53 45 -59 50
-14 13 -325 268 -590 483 -111 90 -208 169 -217 176 -15 13 -503 401 -539 429
-8 7 -67 53 -130 103 -197 155 -406 318 -434 339 -15 11 -39 30 -54 42 -27 22
-241 186 -302 233 -19 14 -45 34 -59 46 -50 40 -944 715 -1042 787 -25 18
-235 174 -279 207 -68 51 -648 475 -735 537 -55 39 -219 157 -365 262 -269
192 -318 227 -562 399 -150 107 -251 177 -403 282 -55 38 -104 72 -110 77 -5
4 -53 37 -105 72 l-95 64 125 -124z"/>
</g>
</svg>
